<?xml version="1.0" encoding="UTF-8" standalone="no"?>
<!DOCTYPE svg PUBLIC "-//W3C//DTD SVG 1.1//EN"
 "http://www.w3.org/Graphics/SVG/1.1/DTD/svg11.dtd">
<!-- Generated by graphviz version 14.1.4 (20260321.0153)
 -->
<!-- Pages: 1 -->
<svg width="252pt" height="44pt"
 viewBox="0.00 0.00 252.00 44.00" xmlns="http://www.w3.org/2000/svg" xmlns:xlink="http://www.w3.org/1999/xlink">
<g id="graph0" class="graph" transform="scale(1 1) rotate(0) translate(4 40)">
<polygon fill="white" stroke="none" points="-4,4 -4,-40 248.25,-40 248.25,4 -4,4"/>
<!-- Parse -->
<g id="node1" class="node">
<title>Parse</title>
<polygon fill="none" stroke="black" points="54,-36 0,-36 0,0 54,0 54,-36"/>
<text xml:space="preserve" text-anchor="middle" x="27" y="-12.95" font-family="Times,serif" font-size="14.00">Parse</text>
</g>
<!-- Evaluate -->
<g id="node2" class="node">
<title>Evaluate</title>
<polygon fill="none" stroke="black" points="153.25,-36 90,-36 90,0 153.25,0 153.25,-36"/>
<text xml:space="preserve" text-anchor="middle" x="121.62" y="-12.95" font-family="Times,serif" font-size="14.00">Evaluate</text>
</g>
<!-- Parse&#45;&gt;Evaluate -->
<g id="edge1" class="edge">
<title>Parse&#45;&gt;Evaluate</title>
<path fill="none" stroke="black" d="M54.29,-18C61.78,-18 70.14,-18 78.32,-18"/>
<polygon fill="black" stroke="black" points="78.16,-21.5 88.16,-18 78.16,-14.5 78.16,-21.5"/>
</g>
<!-- Render -->
<g id="node3" class="node">
<title>Render</title>
<polygon fill="none" stroke="black" points="244.25,-36 189.25,-36 189.25,0 244.25,0 244.25,-36"/>
<text xml:space="preserve" text-anchor="middle" x="216.75" y="-12.95" font-family="Times,serif" font-size="14.00">Render</text>
</g>
<!-- Evaluate&#45;&gt;Render -->
<g id="edge2" class="edge">
<title>Evaluate&#45;&gt;Render</title>
<path fill="none" stroke="black" d="M153.63,-18C161.31,-18 169.63,-18 177.6,-18"/>
<polygon fill="black" stroke="black" points="177.42,-21.5 187.42,-18 177.42,-14.5 177.42,-21.5"/>
</g>
</g>
</svg>
