<svg xmlns="http://www.w3.org/2000/svg" width="20" height="20" viewBox="0 0 24 24" fill="currentColor"><path d="M23.268 5.313c-.35-2.578-2.617-4.61-5.304-5.004C17.51.242 15.792 0 11.813 0h-.03c-3.98 0-4.835.242-5.288.309C3.882.692 1.496 2.518.917 5.127.64 6.412.61 7.837.661 9.143c.074 1.874.088 3.745.26 5.611.118 1.24.325 2.47.62 3.68.55 2.237 2.777 4.098 4.96 4.857 2.336.792 4.849.923 7.256.38.265-.061.527-.132.786-.213.585-.184 1.27-.39 1.774-.753a.057.057 0 0 0 .023-.043v-1.809a.052.052 0 0 0-.02-.041.053.053 0 0 0-.046-.01 20.282 20.282 0 0 1-4.709.545c-2.73 0-3.463-1.284-3.674-1.818a5.593 5.593 0 0 1-.319-1.433.053.053 0 0 1 .066-.054 19.648 19.648 0 0 0 4.636.536c.562 0 1.124-.02 1.687-.06 1.826-.118 3.773-.362 5.58-.863 2.025-.562 3.803-2.083 4.09-4.88.206-2.01.195-4.907-.008-6.963Zm-3.429 7.49h-2.517v-5.64c0-1.248-.544-1.881-1.553-1.881-1.145 0-1.719.752-1.719 2.24v3.082h-2.5V7.522c0-1.488-.574-2.24-1.72-2.24-1.01 0-1.553.633-1.553 1.881v5.64H6.263V7.286c0-1.248.317-2.24.952-2.974a3.258 3.258 0 0 1 2.456-1.009c1.424 0 2.502.547 3.215 1.64l.693 1.162.694-1.162c.713-1.093 1.79-1.64 3.214-1.64.951 0 1.76.337 2.457 1.009.636.735.953 1.726.953 2.974v5.604Z"/></svg>
