<?xml version="1.0" encoding="UTF-8"?>
<svg id="Layer_1" xmlns="http://www.w3.org/2000/svg" version="1.1" viewBox="0 0 500 178.2439">
  <!-- Generator: Adobe Illustrator 30.2.1, SVG Export Plug-In . SVG Version: 2.1.1 Build 1)  -->
  <path fill="#ffffff" d="M343.7571,118.4103c-9.7237,1.2391-27.9431,2.2347-31.5997-9.5498-2.9176-9.403,5.7422-20.9166,11.2063-28.3491-9.2214,3.6858-22.8013,16.3842-28.6003,23.8476-2.5267,3.2519-6.2762,5.1003-10.4025,4.1203,6.027-8.1815,13.91-18.0905,16.9982-27.4372-3.4555,2.4524-5.8579,5.329-8.6323,8.3899-6.1499,6.7849-12.3835,13.2766-20.0737,18.2715-2.6695,1.7338-6.1295,2.9411-8.8428,1.0487-4.978-3.4721,3.0796-14.0944,4.9552-17.8776-3.9363,2.6924-8.1766,4.5774-11.8423,7.411-5.318,4.1109-12.244,14.0495-23.7899,12.668-1.2762-.1527-2.7345-1.1025-3.0757-2.1427-.3903-1.1897.3127-2.9076,1.5472-3.6884,8.804-5.5683,16.9582-4.0986,23.0072-15.48.9317-1.7531,4.3026-8.1713,2.4848-9.6501-2.4005-1.9528-13.627,6.3768-15.7405,8.9713-3.4037,3.4528-6.6708,6.7372-9.4173,10.7595l-14.1331,20.6986c13.0934.8919,27.9729,1.1491,38.8469,8.4527,2.4698,1.9093,4.5507,4.6141,3.3225,7.7655-1.1833,3.0364-4.6766,4.9976-7.8635,4.9616,1.9585-1.3641,4.2002-2.1668,4.7605-4.4388.551-2.2342-1.0262-4.3349-2.9184-5.5947-9.7811-6.5116-26.4886-7.9066-38.1909-8.5594-12.422,16.7998-25.2803,31.5899-44.5236,40.1982-11.171,4.9972-23.2634,6.5905-35.1653,3.6401-4.4762-1.1097-8.7937-3.9645-10.5349-8.1743-2.0464-4.9476-.0113-10.2715,3.3208-14.2161,10.7884-12.7713,32.9444-18.6965,48.9652-21.5891,10.8587-1.9605,21.4836-2.3417,32.7739-2.6456l17.8812-27.0586c-5.9352,5.1053-11.7574,9.9771-18.4948,13.9793-4.6768,2.4398-14.1378,6.0344-17.3691.0171-1.2549-2.337-.9671-4.9609-.7132-7.833-5.5161,5.0383-12.3664,11.7814-20.0062,11.6747-3.768-.0526-6.2384-2.9789-5.9893-6.6845l.4495-6.6863c-4.8709,4.6396-16.3102,16.1641-22.8297,12.0377-4.9255-3.1175-.8461-12.2183,1.3837-16.8088-4.4779,4.4273-20.39,23.0874-27.5011,16.7254-3.1593-2.8265-2.1999-7.1434-1.5028-11.3325-14.2567,13.7369-34.0681,28.4654-54.4534,27.957-11.8355-.2952-21.1796-8.384-22.75-20.2956-1.1932-9.0506,1.0803-17.8975,5.3767-26.3365-8.1786-.9778-15.9854-3.0206-22.9-7.3057-10.1568-6.2943-14.1226-17.808-10.0041-29.064C19.8673,20.1778,63.0867,4.8148,84.7872,14.1134c-13.3364-2.4397-26.0108-1.4973-38.482,3.172-14.47,5.4177-30.896,17.0005-32.6311,33.4387-1.9431,18.4087,16.1554,25.7978,31.5654,26.8811,11.1073-21.3298,31.888-38.4722,52.2585-50.2628,14.3063-8.2806,37.2077-19.3581,53.7842-16.5188,6.925,1.1861,10.8578,6.9291,9.6551,13.9565-1.1978,6.9982-4.805,13.0609-9.5355,18.5954-8.8141,10.3122-20.1529,17.6509-32.6025,23.1772-20.255,8.991-41.6144,14.0923-64.0751,13.6637-4.7129,8.9915-8.9793,22.9798-5.5578,32.7754,2.3099,6.7033,8.2138,10.7743,15.4515,10.5417,19.6355-.631,40.4331-15.2321,53.0522-29.453,6.0513-6.8194,12.2618-12.854,20.7804-16.4003,3.3393-1.3902,6.8706-2.2976,10.5083-1.9918,3.1113.2615,4.8103,2.3838,4.8101,5.6858,2.7121-2.5251,5.5667-4.2887,9.0492-2.9028-5.0047,6.1445-9.4564,11.9996-12.8393,18.7865-.9433,1.8924-4.5438,9.8927-2.3032,10.9247,3.7517,1.7279,17.0476-9.8427,19.5863-14.1361l11.489-19.4305c7.663-12.9599,29.3492-42.4249,41.6331-51.6617,3.0283-2.2771,9.864-6.3664,12.8133-3.5211,3.3662,3.2475-2.4811,12.7671-4.66,16.1615-13.128,20.4523-30.2812,37.3784-49.197,52.6135-3.738,3.0107-9.9614,17.0015-6.7072,20.0288,3.7935,3.5292,17.3583-7.915,20.7367-13.0508,4.6247-7.0305,9.8472-12.9647,17.6326-16.5669,3.5162-1.6269,11.1509-4.1107,13.3551-.1925.6581,1.1698.7335,3.1087.1253,4.3705-4.1782,8.6673-17.5522,10.8982-23.1903,13.8634-2.6801,1.4096-4.336,8.4613-2.4412,10.8262,4.3347,5.4101,27.8472-13.6162,31.6093-18.6516l12.9931-17.3905c2.2634-3.0294,5.574-4.9493,9.51-3.8477-6.2632,8.1706-12.0076,16.0233-17.1945,24.6471,5.031-4.9641,16.3057-16.5823,23.6653-14.1895,1.7651.5739,3.7589,2.0777,3.9068,4.4652.3097,5.0001-2.8717,8.5707-5.3267,13.1512,4.4702-2.4569,8.6391-4.9166,12.441-7.9982,5.2801-4.2798,7.0829-12.322,14.5736-9.3315-5.735,7.9891-11.1153,15.5402-15.7272,23.8298-1.0265,1.8451-1.6215,3.4624-1.2351,5.6527,7.1536-1.4039,19.3544-14.6209,24.2461-20.1499,2.836-3.2055,9.0598-11.1144,12.8272-8.8501,4.4682,2.6855-2.7539,13.2549-4.4975,16.4532,6.7516-5.3298,16.4299-15.6756,24.8612-16.9741,1.3697-.2109,3.2877.4211,3.7465,1.5113,1.583,3.7619-8.2704,11.8581-11.3267,24.3853-1.3922,5.7065,1.0149,10.4673,6.6222,11.8898,4.9275,1.2501,9.876,1.2669,15.0681.4913,9.6353-1.4394,18.8014-3.6861,28.276-6.1398,30.0842-7.7909,54.9747-14.4304,86.659-11.0163,7.526.8109,14.7372,2.369,20.8733,6.3622,4.2308,2.7533,6.2361,7.3764,3.591,11.7855-2.3374,3.8962-6.7374,6.6573-11.4239,6.2352,4.0251-.8431,7.5498-2.586,9.7493-6.242,2.0148-3.3489.9682-7.2708-2.3796-9.5589-12.4638-8.5185-36.0429-7.5372-50.7609-6.0012-29.0229,3.0288-52.4025,12.8321-80.4409,16.4051ZM128.6149,57.4633c10.8371-7.3455,29.7774-23.4909,29.5038-37.0403-.0808-4.0031-2.3165-6.7715-6.1622-7.5585-11.4068-2.3342-25.1378,3.5596-35.4725,8.5417-24.6827,13.1699-47.3659,32.011-60.7585,57.0107,26.2603.4946,51.2642-7.0399,72.8894-20.9536ZM179.6268,85.6408c18.4426-14.3655,33.5587-31.0137,46.5372-49.2443,1.6583-2.4951,9.0167-14.3208,5.5339-15.8725-8.5752-3.8205-46.6908,55.5226-52.0711,65.1169ZM122.0001,108.3175c1.158,1.1878,3.9968-.4173,5.175-1.2764,8.9288-6.5116,16.6306-14.3605,22.9838-23.3639,1.0682-1.5138,1.8451-4.6308.1278-5.6051-2.3619-1.3399-5.6695-.1621-8.0454,1.2613-8.5788,5.1397-15.4265,12.9498-19.7984,21.9807-.9231,1.9068-2.0269,5.3786-.4427,7.0034ZM220.3752,78.7904c-5.1783-2.5871-16.5608,11.0496-18.6302,15.8087,7.0126-1.591,18.5767-7.7504,18.6302-15.8087ZM247.4415,99.7983c-4.3876,1.8639-13.1341,4.5016-15.5034,7.3038-.3621.4283.0316,1.8565.5446,2.0888,5.2434,2.3741,12.0867-5.3758,14.9588-9.3926ZM132.3515,163.7404c3.7129,2.131,7.6452,2.6831,11.8683,3.0212,30.9383.5616,48.5178-20.4013,64.5676-44.0524-23.0247-.0689-50.8819,3.3447-70.033,15.5741-4.5611,2.9631-8.6262,6.4729-10.889,11.3018-2.562,5.4674-.8176,11.1113,4.4862,14.1553Z"/>
  <path fill="#ffffff" d="M287.3832,69.5553c-.959.6216-4.0372.4759-4.062-.7677-.098-4.9177,5.6002-8.8294,10.1771-6.9959-1.0185,3.2817-3.1879,5.8664-6.1152,7.7637Z"/>
</svg>