<svg viewBox="0 0 103.71 103.77" width="103.71" height="103.77" xmlns="http://www.w3.org/2000/svg" xmlns:xlink="http://www.w3.org/1999/xlink">
    <path d="M0,0 L84.33305,0" stroke-width="0.79701" stroke-miterlimit="10" fill="none" stroke="#000000" transform="matrix(1 0 0 -1 5.94149 98.30473)"/>
    <path d="M-1.55415,2.0722 C-1.42464,1.29512 0,0.1295 0.38852,0 C0,-0.1295 -1.42464,-1.29512 -1.55415,-2.0722" stroke-width="0.6376" stroke-linecap="round" stroke-linejoin="round" stroke-miterlimit="10" fill="none" stroke="#000000" transform="matrix(1 0 0 -1 90.27454 98.30473)"/>
    <use xlink:href="#g0" transform="matrix(1 0 0 -1 160.75949 74.143974)" fill="#000000"/>
    <path d="M0,0 L0,84.33305" stroke-width="0.79701" stroke-miterlimit="10" fill="none" stroke="#000000" transform="matrix(1 0 0 -1 5.94149 98.30473)"/>
    <path d="M-1.55415,2.0722 C-1.42464,1.29512 0,0.1295 0.38852,0 C0,-0.1295 -1.42464,-1.29512 -1.55415,-2.0722" stroke-width="0.6376" stroke-linecap="round" stroke-linejoin="round" stroke-miterlimit="10" fill="none" stroke="#000000" transform="matrix(0 -1 -1 -0 5.94149 13.971686)"/>
    <use xlink:href="#g1" transform="matrix(1 0 0 -1 69.379 -18.697453)" fill="#000000"/>
    <path d="M0,0 L56.69362,56.69362" stroke-width="0.79701" stroke-miterlimit="10" fill="none" stroke="#0000ff" transform="matrix(1 0 0 -1 5.94149 98.30473)"/>
    <use xlink:href="#g1" transform="matrix(1 0 0 -1 72.40816 37.996166)" fill="#0000ff"/>
    <use xlink:href="#g2" transform="matrix(1 0 0 -1 72.40816 37.996166)" fill="#0000ff"/>
    <use xlink:href="#g3" transform="matrix(1 0 0 -1 72.40816 37.996166)" fill="#0000ff"/>
    <defs id="outline-glyph">
        <path id="g0" d="M-62.730988,-23.296783 C-62.67121,-23.037754 -62.44207,-22.121191 -61.744686,-22.121191 C-61.694874,-22.121191 -61.45577,-22.121191 -61.246555,-22.250706 C-61.52551,-22.300518 -61.724762,-22.549585 -61.724762,-22.788689 C-61.724762,-22.94809 -61.615173,-23.13738 -61.34618,-23.13738 C-61.127003,-23.13738 -60.808197,-22.958054 -60.808197,-22.559547 C-60.808197,-22.04149 -61.395996,-21.902014 -61.734726,-21.902014 C-62.312557,-21.902014 -62.66125,-22.430033 -62.7808,-22.659174 C-63.02987,-22.00164 -63.56785,-21.902014 -63.856766,-21.902014 C-64.89288,-21.902014 -65.460754,-23.187193 -65.460754,-23.43626 C-65.460754,-23.535887 -65.36112,-23.535887 -65.3412,-23.535887 C-65.2615,-23.535887 -65.23161,-23.51596 -65.211685,-23.426296 C-64.872955,-22.370256 -64.21542,-22.121191 -63.87669,-22.121191 C-63.6874,-22.121191 -63.33871,-22.210855 -63.33871,-22.788689 C-63.33871,-23.09753 -63.508076,-23.765026 -63.87669,-25.159796 C-64.036095,-25.77748 -64.38479,-26.195911 -64.82314,-26.195911 C-64.88292,-26.195911 -65.11206,-26.195911 -65.32127,-26.066397 C-65.07221,-26.016582 -64.85303,-25.807367 -64.85303,-25.528414 C-64.85303,-25.259422 -65.07221,-25.179722 -65.22165,-25.179722 C-65.52053,-25.179722 -65.76959,-25.438751 -65.76959,-25.757555 C-65.76959,-26.215836 -65.27146,-26.415089 -64.83311,-26.415089 C-64.17557,-26.415089 -63.816917,-25.717705 -63.78703,-25.657928 C-63.667477,-26.026546 -63.308823,-26.415089 -62.711063,-26.415089 C-61.68491,-26.415089 -61.11704,-25.129908 -61.11704,-24.880842 C-61.11704,-24.781216 -61.206703,-24.781216 -61.23659,-24.781216 C-61.326256,-24.781216 -61.34618,-24.821066 -61.366108,-24.890804 C-61.694874,-25.956808 -62.372334,-26.195911 -62.69114,-26.195911 C-63.07968,-26.195911 -63.239082,-25.877106 -63.239082,-25.538376 C-63.239082,-25.319199 -63.179306,-25.100021 -63.069717,-24.661665 Z"/>
        <path id="g1" d="M-61.216667,-22.509733 C-61.176815,-22.370256 -61.176815,-22.350332 -61.176815,-22.280594 C-61.176815,-22.101265 -61.31629,-22.011602 -61.465733,-22.011602 C-61.56536,-22.011602 -61.724762,-22.071379 -61.814426,-22.220818 C-61.83435,-22.27063 -61.91405,-22.579472 -61.953903,-22.7588 C-62.02364,-23.017828 -62.09338,-23.28682 -62.153156,-23.55581 L-62.601475,-25.349087 C-62.641323,-25.498526 -63.069717,-26.195911 -63.727253,-26.195911 C-64.235344,-26.195911 -64.34493,-25.757555 -64.34493,-25.388937 C-64.34493,-24.930656 -64.17557,-24.312971 -63.83684,-23.43626 C-63.67744,-23.027792 -63.63759,-22.918201 -63.63759,-22.71895 C-63.63759,-22.27063 -63.956394,-21.902014 -64.45452,-21.902014 C-65.40098,-21.902014 -65.76959,-23.346596 -65.76959,-23.43626 C-65.76959,-23.535887 -65.66997,-23.535887 -65.65004,-23.535887 C-65.550415,-23.535887 -65.54045,-23.51596 -65.49064,-23.356558 C-65.22165,-22.42007 -64.82314,-22.121191 -64.48441,-22.121191 C-64.40471,-22.121191 -64.235344,-22.121191 -64.235344,-22.439995 C-64.235344,-22.689062 -64.33498,-22.94809 -64.40471,-23.13738 C-64.803215,-24.19342 -64.982544,-24.761292 -64.982544,-25.229534 C-64.982544,-26.116209 -64.3549,-26.415089 -63.7671,-26.415089 C-63.37856,-26.415089 -63.03983,-26.245724 -62.760876,-25.96677 C-62.89039,-26.484827 -63.00994,-26.972998 -63.408447,-27.501017 C-63.667477,-27.839746 -64.04606,-28.128664 -64.50434,-28.128664 C-64.643814,-28.128664 -65.09213,-28.098776 -65.2615,-27.710232 C-65.1021,-27.710232 -64.97258,-27.710232 -64.83311,-27.590681 C-64.73348,-27.501017 -64.63385,-27.371502 -64.63385,-27.182213 C-64.63385,-26.873371 -64.90285,-26.833519 -65.00247,-26.833519 C-65.23161,-26.833519 -65.56038,-26.992922 -65.56038,-27.481092 C-65.56038,-27.979223 -65.122025,-28.347841 -64.50434,-28.347841 C-63.478188,-28.347841 -62.452034,-27.44124 -62.17308,-26.315462 Z"/>
        <path id="g2" d="M-51.204906,-23.047716 C-51.055466,-23.047716 -50.866177,-23.047716 -50.866177,-22.848463 C-50.866177,-22.649212 -51.055466,-22.649212 -51.194942,-22.649212 L-57.162563,-22.649212 C-57.30204,-22.649212 -57.491333,-22.649212 -57.491333,-22.848463 C-57.491333,-23.047716 -57.30204,-23.047716 -57.152603,-23.047716 Z M-51.194942,-24.980469 C-51.055466,-24.980469 -50.866177,-24.980469 -50.866177,-24.781216 C-50.866177,-24.581963 -51.055466,-24.581963 -51.204906,-24.581963 L-57.152603,-24.581963 C-57.30204,-24.581963 -57.491333,-24.581963 -57.491333,-24.781216 C-57.491333,-24.980469 -57.30204,-24.980469 -57.162563,-24.980469 Z"/>
        <path id="g3" d="M-44.20564,-23.296783 C-44.145863,-23.037754 -43.91672,-22.121191 -43.219337,-22.121191 C-43.169525,-22.121191 -42.93042,-22.121191 -42.721203,-22.250706 C-43.00016,-22.300518 -43.199413,-22.549585 -43.199413,-22.788689 C-43.199413,-22.94809 -43.08982,-23.13738 -42.82083,-23.13738 C-42.601654,-23.13738 -42.28285,-22.958054 -42.28285,-22.559547 C-42.28285,-22.04149 -42.870644,-21.902014 -43.209373,-21.902014 C-43.78721,-21.902014 -44.1359,-22.430033 -44.25545,-22.659174 C-44.504517,-22.00164 -45.0425,-21.902014 -45.331417,-21.902014 C-46.36753,-21.902014 -46.935402,-23.187193 -46.935402,-23.43626 C-46.935402,-23.535887 -46.835773,-23.535887 -46.81585,-23.535887 C-46.73615,-23.535887 -46.70626,-23.51596 -46.686337,-23.426296 C-46.347607,-22.370256 -45.69007,-22.121191 -45.35134,-22.121191 C-45.162052,-22.121191 -44.81336,-22.210855 -44.81336,-22.788689 C-44.81336,-23.09753 -44.982723,-23.765026 -45.35134,-25.159796 C-45.510742,-25.77748 -45.859436,-26.195911 -46.297794,-26.195911 C-46.357567,-26.195911 -46.586708,-26.195911 -46.795925,-26.066397 C-46.54686,-26.016582 -46.32768,-25.807367 -46.32768,-25.528414 C-46.32768,-25.259422 -46.54686,-25.179722 -46.696297,-25.179722 C-46.99518,-25.179722 -47.244244,-25.438751 -47.244244,-25.757555 C-47.244244,-26.215836 -46.746113,-26.415089 -46.307755,-26.415089 C-45.650223,-26.415089 -45.291565,-25.717705 -45.261677,-25.657928 C-45.142128,-26.026546 -44.78347,-26.415089 -44.185715,-26.415089 C-43.15956,-26.415089 -42.59169,-25.129908 -42.59169,-24.880842 C-42.59169,-24.781216 -42.681355,-24.781216 -42.711243,-24.781216 C-42.800907,-24.781216 -42.82083,-24.821066 -42.840755,-24.890804 C-43.169525,-25.956808 -43.846985,-26.195911 -44.165787,-26.195911 C-44.55433,-26.195911 -44.713734,-25.877106 -44.713734,-25.538376 C-44.713734,-25.319199 -44.653957,-25.100021 -44.54437,-24.661665 Z"/>
    </defs>
</svg>
