<svg xmlns="http://www.w3.org/2000/svg" width="20" height="20" viewBox="0 0 24 24" fill="currentColor"><path d="M12 10.8c-1.087-2.114-4.046-6.053-6.798-7.995C2.566.944 1.561 1.266.902 1.565.139 1.908 0 3.08 0 3.768c0 .69.378 5.65.624 6.479.785 2.627 3.601 3.496 6.159 3.232-4.496.803-7.008 3.456-3.938 7.205C6.073 24.327 9.2 21.763 12 17.85c2.8 3.912 5.927 6.477 9.155 2.834 3.07-3.75.558-6.402-3.938-7.205 2.558.264 5.374-.605 6.159-3.232.246-.828.624-5.788.624-6.479 0-.688-.139-1.86-.902-2.203-.659-.3-1.664-.62-4.3 1.24C16.046 4.748 13.087 8.687 12 10.8Z"/></svg>
